# xmcd
#
# Track frame offsets:
#	150
#	24095
#	46355
#	64918
#	85465
#	105723
#	122835
#	144523
#	165948
#	187515
#	205453
#	221495
#
# Disc length: 3215 seconds
#
# Revision: 1
# Processed by: cddbd v1.5.2PL0 Copyright (c) Steve Scherf et al.
# Submitted via: EZCDAudioConverter 8.0.2.1
#
DISCID=9f0c8d0c
DTITLE=Ngọc Lan - Mãi Mãi Yêu Anh
DYEAR=1999
DGENRE=World Pop
TTITLE0=Mãi mãi yêu anh (Unchained Melody)
TTITLE1=Hãy đến với nhau (Joe Le Taxi)
TTITLE2=Em vẫn khopong đổi thay (Je N'ais Pas Change)
TTITLE3=Đường đời (My Way)
TTITLE4=Cho nhau tình yêu (Tropique)
TTITLE5=Hãy nói yêu em (Say You Will)
TTITLE6=Mong manh cuộc tình (In Your Eyes)
TTITLE7=Áo em thu vàng (Compagnon Disparu)
TTITLE8=Một mai không có anh trong đời (Et Si Tu N'existais Pas)
TTITLE9=Tiếc nhớ cuộc tình (Si Tu N'as Pas Compris)
TTITLE10=Người yêu dấu ơi (Je Suis D'accord)
TTITLE11=Mưa trên biển vắng (Je N'oublierais Jamais)
EXTD=
EXTT0=
EXTT1=
EXTT2=
EXTT3=
EXTT4=
EXTT5=
EXTT6=
EXTT7=
EXTT8=
EXTT9=
EXTT10=
EXTT11=
PLAYORDER=
